<mxfile host="app.diagrams.net" modified="2022-12-15T22:01:09.720Z" agent="5.0 (Windows NT 10.0; Win64; x64) AppleWebKit/537.36 (KHTML, like Gecko) Chrome/106.0.0.0 YaBrowser/22.11.2.807 Yowser/2.5 Safari/537.36" etag="gozwIgMh6PKMa0LWWSCt" version="20.7.3" type="github">
  <diagram id="S6ZehWiBlQ7WZJnzWoVA" name="Страница 1">
    <mxGraphModel dx="1002" dy="553" grid="1" gridSize="10" guides="1" tooltips="1" connect="1" arrows="1" fold="1" page="1" pageScale="1" pageWidth="827" pageHeight="1169" math="0" shadow="0">
      <root>
        <mxCell id="0" />
        <mxCell id="1" parent="0" />
        <mxCell id="5SWYnyWbHG86S7uUr1M9-34" value="" style="endArrow=classic;startArrow=classic;html=1;rounded=0;" parent="1" source="5SWYnyWbHG86S7uUr1M9-4" target="5SWYnyWbHG86S7uUr1M9-30" edge="1">
          <mxGeometry width="50" height="50" relative="1" as="geometry">
            <mxPoint x="390" y="480" as="sourcePoint" />
            <mxPoint x="440" y="430" as="targetPoint" />
          </mxGeometry>
        </mxCell>
        <mxCell id="5SWYnyWbHG86S7uUr1M9-33" value="" style="endArrow=classic;startArrow=classic;html=1;rounded=0;" parent="1" source="5SWYnyWbHG86S7uUr1M9-3" target="5SWYnyWbHG86S7uUr1M9-28" edge="1">
          <mxGeometry width="50" height="50" relative="1" as="geometry">
            <mxPoint x="390" y="380" as="sourcePoint" />
            <mxPoint x="440" y="330" as="targetPoint" />
          </mxGeometry>
        </mxCell>
        <mxCell id="5SWYnyWbHG86S7uUr1M9-32" value="" style="endArrow=classic;startArrow=classic;html=1;rounded=0;" parent="1" source="5SWYnyWbHG86S7uUr1M9-2" target="5SWYnyWbHG86S7uUr1M9-31" edge="1">
          <mxGeometry width="50" height="50" relative="1" as="geometry">
            <mxPoint x="390" y="380" as="sourcePoint" />
            <mxPoint x="440" y="330" as="targetPoint" />
          </mxGeometry>
        </mxCell>
        <mxCell id="5SWYnyWbHG86S7uUr1M9-27" value="" style="endArrow=classic;startArrow=classic;html=1;rounded=0;" parent="1" source="5SWYnyWbHG86S7uUr1M9-3" target="5SWYnyWbHG86S7uUr1M9-4" edge="1">
          <mxGeometry width="50" height="50" relative="1" as="geometry">
            <mxPoint x="390" y="410" as="sourcePoint" />
            <mxPoint x="440" y="360" as="targetPoint" />
          </mxGeometry>
        </mxCell>
        <mxCell id="5SWYnyWbHG86S7uUr1M9-26" value="" style="endArrow=classic;startArrow=classic;html=1;rounded=0;" parent="1" source="5SWYnyWbHG86S7uUr1M9-4" target="5SWYnyWbHG86S7uUr1M9-2" edge="1">
          <mxGeometry width="50" height="50" relative="1" as="geometry">
            <mxPoint x="390" y="410" as="sourcePoint" />
            <mxPoint x="440" y="360" as="targetPoint" />
            <Array as="points">
              <mxPoint x="580" y="260" />
            </Array>
          </mxGeometry>
        </mxCell>
        <mxCell id="5SWYnyWbHG86S7uUr1M9-19" value="" style="endArrow=classic;startArrow=classic;html=1;rounded=0;" parent="1" source="5SWYnyWbHG86S7uUr1M9-3" target="5SWYnyWbHG86S7uUr1M9-2" edge="1">
          <mxGeometry width="50" height="50" relative="1" as="geometry">
            <mxPoint x="390" y="410" as="sourcePoint" />
            <mxPoint x="380" y="260" as="targetPoint" />
            <Array as="points">
              <mxPoint x="260" y="260" />
            </Array>
          </mxGeometry>
        </mxCell>
        <mxCell id="5SWYnyWbHG86S7uUr1M9-2" value="" style="sketch=0;pointerEvents=1;shadow=0;dashed=0;html=1;strokeColor=#006EAF;fillColor=#1ba1e2;aspect=fixed;labelPosition=center;verticalLabelPosition=bottom;verticalAlign=top;align=center;outlineConnect=0;shape=mxgraph.vvd.physical_upstream_router;fontColor=#ffffff;" parent="1" vertex="1">
          <mxGeometry x="400" y="240" width="40" height="40" as="geometry" />
        </mxCell>
        <mxCell id="5SWYnyWbHG86S7uUr1M9-3" value="" style="sketch=0;pointerEvents=1;shadow=0;dashed=0;html=1;strokeColor=#006EAF;fillColor=#1ba1e2;aspect=fixed;labelPosition=center;verticalLabelPosition=bottom;verticalAlign=top;align=center;outlineConnect=0;shape=mxgraph.vvd.physical_upstream_router;fontColor=#ffffff;" parent="1" vertex="1">
          <mxGeometry x="240" y="440" width="40" height="40" as="geometry" />
        </mxCell>
        <mxCell id="5SWYnyWbHG86S7uUr1M9-4" value="" style="sketch=0;pointerEvents=1;shadow=0;dashed=0;html=1;strokeColor=#006EAF;fillColor=#1ba1e2;aspect=fixed;labelPosition=center;verticalLabelPosition=bottom;verticalAlign=top;align=center;outlineConnect=0;shape=mxgraph.vvd.physical_upstream_router;fontColor=#ffffff;" parent="1" vertex="1">
          <mxGeometry x="560" y="440" width="40" height="40" as="geometry" />
        </mxCell>
        <mxCell id="5SWYnyWbHG86S7uUr1M9-5" value="" style="rounded=1;whiteSpace=wrap;html=1;fillColor=default;" parent="1" vertex="1">
          <mxGeometry x="320" y="250" width="40" height="20" as="geometry" />
        </mxCell>
        <mxCell id="5SWYnyWbHG86S7uUr1M9-7" value="" style="rounded=1;whiteSpace=wrap;html=1;fillColor=none;" parent="1" vertex="1">
          <mxGeometry x="480" y="250" width="40" height="20" as="geometry" />
        </mxCell>
        <mxCell id="5SWYnyWbHG86S7uUr1M9-8" value="" style="rounded=1;whiteSpace=wrap;html=1;fillColor=default;" parent="1" vertex="1">
          <mxGeometry x="560" y="380" width="40" height="20" as="geometry" />
        </mxCell>
        <mxCell id="5SWYnyWbHG86S7uUr1M9-9" value="" style="rounded=1;whiteSpace=wrap;html=1;fillColor=none;" parent="1" vertex="1">
          <mxGeometry x="400" y="200" width="40" height="20" as="geometry" />
        </mxCell>
        <mxCell id="5SWYnyWbHG86S7uUr1M9-10" value="" style="rounded=1;whiteSpace=wrap;html=1;fillColor=none;" parent="1" vertex="1">
          <mxGeometry x="320" y="450" width="40" height="20" as="geometry" />
        </mxCell>
        <mxCell id="5SWYnyWbHG86S7uUr1M9-11" value="" style="rounded=1;whiteSpace=wrap;html=1;fillColor=default;" parent="1" vertex="1">
          <mxGeometry x="480" y="450" width="40" height="20" as="geometry" />
        </mxCell>
        <mxCell id="5SWYnyWbHG86S7uUr1M9-13" value="" style="rounded=1;whiteSpace=wrap;html=1;fillColor=none;" parent="1" vertex="1">
          <mxGeometry x="240" y="500" width="40" height="20" as="geometry" />
        </mxCell>
        <mxCell id="5SWYnyWbHG86S7uUr1M9-14" value="" style="rounded=1;whiteSpace=wrap;html=1;fillColor=default;" parent="1" vertex="1">
          <mxGeometry x="560" y="500" width="40" height="20" as="geometry" />
        </mxCell>
        <mxCell id="5SWYnyWbHG86S7uUr1M9-15" value="" style="rounded=1;whiteSpace=wrap;html=1;fillColor=none;" parent="1" vertex="1">
          <mxGeometry x="400" y="140" width="40" height="20" as="geometry" />
        </mxCell>
        <mxCell id="5SWYnyWbHG86S7uUr1M9-16" value="" style="rounded=1;whiteSpace=wrap;html=1;fillColor=none;" parent="1" vertex="1">
          <mxGeometry x="240" y="560" width="40" height="20" as="geometry" />
        </mxCell>
        <mxCell id="5SWYnyWbHG86S7uUr1M9-17" value="" style="rounded=1;whiteSpace=wrap;html=1;fillColor=default;" parent="1" vertex="1">
          <mxGeometry x="560" y="560" width="40" height="20" as="geometry" />
        </mxCell>
        <mxCell id="5SWYnyWbHG86S7uUr1M9-6" value="" style="rounded=1;whiteSpace=wrap;html=1;fillColor=default;" parent="1" vertex="1">
          <mxGeometry x="240" y="380" width="40" height="20" as="geometry" />
        </mxCell>
        <mxCell id="5SWYnyWbHG86S7uUr1M9-20" value="" style="rounded=1;whiteSpace=wrap;html=1;fillColor=default;" parent="1" vertex="1">
          <mxGeometry x="480" y="250" width="40" height="20" as="geometry" />
        </mxCell>
        <mxCell id="5SWYnyWbHG86S7uUr1M9-21" value="" style="rounded=1;whiteSpace=wrap;html=1;fillColor=default;" parent="1" vertex="1">
          <mxGeometry x="400" y="200" width="40" height="20" as="geometry" />
        </mxCell>
        <mxCell id="5SWYnyWbHG86S7uUr1M9-22" value="" style="rounded=1;whiteSpace=wrap;html=1;fillColor=default;" parent="1" vertex="1">
          <mxGeometry x="400" y="140" width="40" height="20" as="geometry" />
        </mxCell>
        <mxCell id="5SWYnyWbHG86S7uUr1M9-23" value="" style="rounded=1;whiteSpace=wrap;html=1;fillColor=default;" parent="1" vertex="1">
          <mxGeometry x="320" y="450" width="40" height="20" as="geometry" />
        </mxCell>
        <mxCell id="5SWYnyWbHG86S7uUr1M9-24" value="" style="rounded=1;whiteSpace=wrap;html=1;fillColor=default;" parent="1" vertex="1">
          <mxGeometry x="240" y="500" width="40" height="20" as="geometry" />
        </mxCell>
        <mxCell id="5SWYnyWbHG86S7uUr1M9-25" value="" style="rounded=1;whiteSpace=wrap;html=1;fillColor=default;" parent="1" vertex="1">
          <mxGeometry x="240" y="560" width="40" height="20" as="geometry" />
        </mxCell>
        <mxCell id="5SWYnyWbHG86S7uUr1M9-28" value="" style="sketch=0;pointerEvents=1;shadow=0;dashed=0;html=1;aspect=fixed;labelPosition=center;verticalLabelPosition=bottom;verticalAlign=top;align=center;outlineConnect=0;shape=mxgraph.vvd.monitor;fillColor=#0050ef;fontColor=#ffffff;strokeColor=#001DBC;" parent="1" vertex="1">
          <mxGeometry x="240" y="600" width="43.01" height="40" as="geometry" />
        </mxCell>
        <mxCell id="5SWYnyWbHG86S7uUr1M9-30" value="" style="sketch=0;pointerEvents=1;shadow=0;dashed=0;html=1;aspect=fixed;labelPosition=center;verticalLabelPosition=bottom;verticalAlign=top;align=center;outlineConnect=0;shape=mxgraph.vvd.monitor;fillColor=#0050ef;fontColor=#ffffff;strokeColor=#001DBC;" parent="1" vertex="1">
          <mxGeometry x="560" y="600" width="43.01" height="40" as="geometry" />
        </mxCell>
        <mxCell id="5SWYnyWbHG86S7uUr1M9-31" value="" style="sketch=0;pointerEvents=1;shadow=0;dashed=0;html=1;aspect=fixed;labelPosition=center;verticalLabelPosition=bottom;verticalAlign=top;align=center;outlineConnect=0;shape=mxgraph.vvd.monitor;fillColor=#0050ef;fontColor=#ffffff;strokeColor=#001DBC;" parent="1" vertex="1">
          <mxGeometry x="396.99" y="80" width="43.01" height="40" as="geometry" />
        </mxCell>
        <mxCell id="5SWYnyWbHG86S7uUr1M9-35" value="eth2" style="text;html=1;strokeColor=none;fillColor=none;align=center;verticalAlign=middle;whiteSpace=wrap;rounded=0;" parent="1" vertex="1">
          <mxGeometry x="400" y="140" width="40" height="20" as="geometry" />
        </mxCell>
        <mxCell id="5SWYnyWbHG86S7uUr1M9-36" value="eth2" style="text;html=1;strokeColor=none;fillColor=none;align=center;verticalAlign=middle;whiteSpace=wrap;rounded=0;" parent="1" vertex="1">
          <mxGeometry x="320" y="250" width="40" height="20" as="geometry" />
        </mxCell>
        <mxCell id="5SWYnyWbHG86S7uUr1M9-37" value="eth2" style="text;html=1;strokeColor=none;fillColor=none;align=center;verticalAlign=middle;whiteSpace=wrap;rounded=0;" parent="1" vertex="1">
          <mxGeometry x="560" y="380" width="40" height="20" as="geometry" />
        </mxCell>
        <mxCell id="5SWYnyWbHG86S7uUr1M9-38" value="eth2" style="text;html=1;strokeColor=none;fillColor=none;align=center;verticalAlign=middle;whiteSpace=wrap;rounded=0;" parent="1" vertex="1">
          <mxGeometry x="240" y="380" width="40" height="20" as="geometry" />
        </mxCell>
        <mxCell id="5SWYnyWbHG86S7uUr1M9-39" value="eth2" style="text;html=1;strokeColor=none;fillColor=none;align=center;verticalAlign=middle;whiteSpace=wrap;rounded=0;" parent="1" vertex="1">
          <mxGeometry x="240" y="560" width="40" height="20" as="geometry" />
        </mxCell>
        <mxCell id="5SWYnyWbHG86S7uUr1M9-40" value="eth2" style="text;html=1;strokeColor=none;fillColor=none;align=center;verticalAlign=middle;whiteSpace=wrap;rounded=0;" parent="1" vertex="1">
          <mxGeometry x="560" y="560" width="40" height="20" as="geometry" />
        </mxCell>
        <mxCell id="5SWYnyWbHG86S7uUr1M9-41" value="eth3" style="text;html=1;strokeColor=none;fillColor=none;align=center;verticalAlign=middle;whiteSpace=wrap;rounded=0;" parent="1" vertex="1">
          <mxGeometry x="480" y="250" width="40" height="20" as="geometry" />
        </mxCell>
        <mxCell id="5SWYnyWbHG86S7uUr1M9-42" value="eth3" style="text;html=1;strokeColor=none;fillColor=none;align=center;verticalAlign=middle;whiteSpace=wrap;rounded=0;" parent="1" vertex="1">
          <mxGeometry x="320" y="450" width="40" height="20" as="geometry" />
        </mxCell>
        <mxCell id="5SWYnyWbHG86S7uUr1M9-43" value="eth3" style="text;html=1;strokeColor=none;fillColor=none;align=center;verticalAlign=middle;whiteSpace=wrap;rounded=0;" parent="1" vertex="1">
          <mxGeometry x="480" y="450" width="40" height="20" as="geometry" />
        </mxCell>
        <mxCell id="5SWYnyWbHG86S7uUr1M9-44" value="eth4" style="text;html=1;strokeColor=none;fillColor=none;align=center;verticalAlign=middle;whiteSpace=wrap;rounded=0;" parent="1" vertex="1">
          <mxGeometry x="400" y="200" width="40" height="20" as="geometry" />
        </mxCell>
        <mxCell id="5SWYnyWbHG86S7uUr1M9-45" value="eth4" style="text;html=1;strokeColor=none;fillColor=none;align=center;verticalAlign=middle;whiteSpace=wrap;rounded=0;" parent="1" vertex="1">
          <mxGeometry x="240" y="500" width="40" height="20" as="geometry" />
        </mxCell>
        <mxCell id="5SWYnyWbHG86S7uUr1M9-46" value="eth4" style="text;html=1;strokeColor=none;fillColor=none;align=center;verticalAlign=middle;whiteSpace=wrap;rounded=0;" parent="1" vertex="1">
          <mxGeometry x="560" y="500" width="40" height="20" as="geometry" />
        </mxCell>
        <mxCell id="5SWYnyWbHG86S7uUr1M9-47" value="&lt;b&gt;&lt;font style=&quot;font-size: 16px;&quot;&gt;PC1&lt;/font&gt;&lt;/b&gt;" style="text;html=1;strokeColor=none;fillColor=none;align=center;verticalAlign=middle;whiteSpace=wrap;rounded=0;" parent="1" vertex="1">
          <mxGeometry x="190" y="610" width="50" height="20" as="geometry" />
        </mxCell>
        <mxCell id="5SWYnyWbHG86S7uUr1M9-48" value="&lt;b&gt;&lt;font style=&quot;font-size: 16px;&quot;&gt;PC2&lt;/font&gt;&lt;/b&gt;" style="text;html=1;strokeColor=none;fillColor=none;align=center;verticalAlign=middle;whiteSpace=wrap;rounded=0;" parent="1" vertex="1">
          <mxGeometry x="603.01" y="610" width="50" height="20" as="geometry" />
        </mxCell>
        <mxCell id="5SWYnyWbHG86S7uUr1M9-49" value="&lt;b&gt;&lt;font style=&quot;font-size: 16px;&quot;&gt;PC3&lt;/font&gt;&lt;/b&gt;" style="text;html=1;strokeColor=none;fillColor=none;align=center;verticalAlign=middle;whiteSpace=wrap;rounded=0;" parent="1" vertex="1">
          <mxGeometry x="440" y="90" width="50" height="20" as="geometry" />
        </mxCell>
        <mxCell id="5SWYnyWbHG86S7uUr1M9-50" value="&lt;b&gt;&lt;font style=&quot;font-size: 16px;&quot;&gt;R01.MSK&lt;/font&gt;&lt;/b&gt;" style="text;html=1;strokeColor=none;fillColor=none;align=center;verticalAlign=middle;whiteSpace=wrap;rounded=0;" parent="1" vertex="1">
          <mxGeometry x="170" y="450" width="50" height="20" as="geometry" />
        </mxCell>
        <mxCell id="5SWYnyWbHG86S7uUr1M9-51" value="&lt;b&gt;&lt;font style=&quot;font-size: 16px;&quot;&gt;R01.FRT&lt;/font&gt;&lt;/b&gt;" style="text;html=1;strokeColor=none;fillColor=none;align=center;verticalAlign=middle;whiteSpace=wrap;rounded=0;" parent="1" vertex="1">
          <mxGeometry x="620" y="450" width="50" height="20" as="geometry" />
        </mxCell>
        <mxCell id="5SWYnyWbHG86S7uUr1M9-52" value="&lt;b&gt;&lt;font style=&quot;font-size: 16px;&quot;&gt;R01.BRL&lt;/font&gt;&lt;/b&gt;" style="text;html=1;strokeColor=none;fillColor=none;align=center;verticalAlign=middle;whiteSpace=wrap;rounded=0;" parent="1" vertex="1">
          <mxGeometry x="400" y="280" width="50" height="20" as="geometry" />
        </mxCell>
        <mxCell id="5SWYnyWbHG86S7uUr1M9-53" value="192.168.30.254" style="text;html=1;strokeColor=none;fillColor=none;align=center;verticalAlign=middle;whiteSpace=wrap;rounded=0;" parent="1" vertex="1">
          <mxGeometry x="450" y="140" width="86" height="20" as="geometry" />
        </mxCell>
        <mxCell id="5SWYnyWbHG86S7uUr1M9-54" value="192.168.10.254" style="text;html=1;strokeColor=none;fillColor=none;align=center;verticalAlign=middle;whiteSpace=wrap;rounded=0;" parent="1" vertex="1">
          <mxGeometry x="283.01" y="565" width="86" height="20" as="geometry" />
        </mxCell>
        <mxCell id="5SWYnyWbHG86S7uUr1M9-55" value="192.168.20.254" style="text;html=1;strokeColor=none;fillColor=none;align=center;verticalAlign=middle;whiteSpace=wrap;rounded=0;" parent="1" vertex="1">
          <mxGeometry x="470" y="565" width="86" height="20" as="geometry" />
        </mxCell>
        <mxCell id="5SWYnyWbHG86S7uUr1M9-56" value="192.168.30.1" style="text;html=1;strokeColor=none;fillColor=none;align=center;verticalAlign=middle;whiteSpace=wrap;rounded=0;" parent="1" vertex="1">
          <mxGeometry x="450" y="200" width="86" height="20" as="geometry" />
        </mxCell>
        <mxCell id="5SWYnyWbHG86S7uUr1M9-57" value="192.168.20.1" style="text;html=1;strokeColor=none;fillColor=none;align=center;verticalAlign=middle;whiteSpace=wrap;rounded=0;" parent="1" vertex="1">
          <mxGeometry x="474" y="500" width="86" height="20" as="geometry" />
        </mxCell>
        <mxCell id="5SWYnyWbHG86S7uUr1M9-58" value="192.168.10.1" style="text;html=1;strokeColor=none;fillColor=none;align=center;verticalAlign=middle;whiteSpace=wrap;rounded=0;" parent="1" vertex="1">
          <mxGeometry x="283.01" y="500" width="86" height="20" as="geometry" />
        </mxCell>
        <mxCell id="5SWYnyWbHG86S7uUr1M9-59" value="10.10.1.1" style="text;html=1;strokeColor=none;fillColor=none;align=center;verticalAlign=middle;whiteSpace=wrap;rounded=0;" parent="1" vertex="1">
          <mxGeometry x="283.01" y="380" width="66.99" height="20" as="geometry" />
        </mxCell>
        <mxCell id="5SWYnyWbHG86S7uUr1M9-60" value="10.10.1.2" style="text;html=1;strokeColor=none;fillColor=none;align=center;verticalAlign=middle;whiteSpace=wrap;rounded=0;" parent="1" vertex="1">
          <mxGeometry x="292.52" y="280" width="66.99" height="20" as="geometry" />
        </mxCell>
        <mxCell id="5SWYnyWbHG86S7uUr1M9-61" value="10.10.3.1" style="text;html=1;strokeColor=none;fillColor=none;align=center;verticalAlign=middle;whiteSpace=wrap;rounded=0;" parent="1" vertex="1">
          <mxGeometry x="489.01" y="380" width="66.99" height="20" as="geometry" />
        </mxCell>
        <mxCell id="5SWYnyWbHG86S7uUr1M9-62" value="10.10.2.1" style="text;html=1;strokeColor=none;fillColor=none;align=center;verticalAlign=middle;whiteSpace=wrap;rounded=0;" parent="1" vertex="1">
          <mxGeometry x="306.51" y="420" width="66.99" height="20" as="geometry" />
        </mxCell>
        <mxCell id="5SWYnyWbHG86S7uUr1M9-64" value="10.10.2.2" style="text;html=1;strokeColor=none;fillColor=none;align=center;verticalAlign=middle;whiteSpace=wrap;rounded=0;" parent="1" vertex="1">
          <mxGeometry x="466.51" y="420" width="66.99" height="20" as="geometry" />
        </mxCell>
        <mxCell id="5SWYnyWbHG86S7uUr1M9-65" value="10.10.3.2" style="text;html=1;strokeColor=none;fillColor=none;align=center;verticalAlign=middle;whiteSpace=wrap;rounded=0;" parent="1" vertex="1">
          <mxGeometry x="474" y="280" width="66.99" height="20" as="geometry" />
        </mxCell>
      </root>
    </mxGraphModel>
  </diagram>
</mxfile>
